<svg width="28" height="30" viewBox="0 0 28 30" fill="none" xmlns="http://www.w3.org/2000/svg">
<path fill-rule="evenodd" clip-rule="evenodd" d="M3.87501 10.5C3.87501 7.81468 4.94174 5.23935 6.84055 3.34054C8.73936 1.44174 11.3147 0.375 14 0.375C16.6853 0.375 19.2607 1.44174 21.1595 3.34054C23.0583 5.23935 24.125 7.81468 24.125 10.5V11.625C24.125 14.8095 25.325 17.7105 27.302 19.905C27.4252 20.0415 27.513 20.2061 27.5578 20.3843C27.6026 20.5626 27.6031 20.7492 27.5591 20.9277C27.5152 21.1062 27.4281 21.2712 27.3057 21.4083C27.1832 21.5453 27.029 21.6503 26.8565 21.714C24.5405 22.569 22.1165 23.199 19.61 23.5785C19.6664 24.3497 19.5633 25.1243 19.3069 25.8538C19.0505 26.5834 18.6465 27.2522 18.1201 27.8186C17.5936 28.385 16.956 28.8368 16.2471 29.1457C15.5382 29.4546 14.7733 29.614 14 29.614C13.2267 29.614 12.4618 29.4546 11.7529 29.1457C11.044 28.8368 10.4064 28.385 9.87994 27.8186C9.35349 27.2522 8.94947 26.5834 8.69311 25.8538C8.43675 25.1243 8.33357 24.3497 8.39001 23.5785C5.91748 23.2038 3.48949 22.5786 1.14351 21.7125C0.971205 21.6489 0.8171 21.5441 0.694647 21.4072C0.572195 21.2703 0.48512 21.1055 0.441027 20.9272C0.396934 20.7489 0.397165 20.5625 0.441698 20.3843C0.486232 20.2062 0.573715 20.0416 0.696505 19.905C2.74672 17.635 3.87962 14.6838 3.87501 11.625V10.5ZM10.628 23.85C10.6088 24.3048 10.6818 24.7588 10.8426 25.1846C11.0034 25.6104 11.2487 25.9993 11.5637 26.3279C11.8787 26.6565 12.257 26.918 12.6757 27.0966C13.0943 27.2752 13.5448 27.3673 14 27.3673C14.4552 27.3673 14.9057 27.2752 15.3244 27.0966C15.743 26.918 16.1213 26.6565 16.4363 26.3279C16.7513 25.9993 16.9966 25.6104 17.1574 25.1846C17.3182 24.7588 17.3912 24.3048 17.372 23.85C15.1285 24.0521 12.8715 24.0521 10.628 23.85Z" fill="#FFE1EA"/>
</svg>
