<svg width="165" height="147" viewBox="0 0 165 147" fill="none" xmlns="http://www.w3.org/2000/svg">
<g id="Frame" opacity="0.5" clip-path="url(#clip0_33_471)">
<path id="Vector" fill-rule="evenodd" clip-rule="evenodd" d="M131.33 25.7986C137.458 21.1104 146.212 26.1644 145.216 33.8162L140.583 69.3871L170.11 89.7418C176.471 94.1246 174.372 104.004 166.777 105.424L131.525 112.013L121.285 146.379C119.081 153.783 109.038 154.837 105.344 148.06L88.1832 116.566L52.3284 117.451C44.6114 117.64 40.5065 108.411 45.8131 102.805L70.4551 76.754L58.5351 42.931C55.9673 35.6432 63.474 28.886 70.45 32.2032L102.841 47.5968L131.326 25.8043L131.33 25.7986Z" fill="#DF89C6"/>
</g>
<defs>
<clipPath id="clip0_33_471">
<rect width="158.764" height="158.764" fill="white" transform="translate(80.1436 -28.2732) rotate(30)"/>
</clipPath>
</defs>
</svg>
