<svg width="111" height="88" viewBox="0 0 111 88" fill="none" xmlns="http://www.w3.org/2000/svg">
<g id="Frame" opacity="0.5" clip-path="url(#clip0_33_478)">
<path id="Vector" d="M105.181 44.1779C105.735 43.8731 106.197 43.4241 106.516 42.8786C106.836 42.3331 107.002 41.7113 106.997 41.0791C106.993 40.4468 106.817 39.8276 106.489 39.287C106.161 38.7463 105.694 38.3044 105.135 38.0078L70.9549 19.9109L42.7959 48.0698C42.1382 48.7275 41.2462 49.097 40.316 49.097C39.3858 49.097 38.4938 48.7275 37.836 48.0698C37.1783 47.4121 36.8088 46.52 36.8088 45.5898C36.8088 44.6597 37.1783 43.7676 37.8361 43.1099L65.995 14.951L47.898 -19.2293C47.6015 -19.7877 47.1595 -20.2556 46.6189 -20.5834C46.0782 -20.9112 45.459 -21.0868 44.8268 -21.0915C44.1945 -21.0963 43.5727 -20.93 43.0272 -20.6103C42.4817 -20.2907 42.0328 -19.8295 41.7279 -19.2755C26.2158 8.95829 15.6381 39.6334 10.4509 71.4275C10.361 71.9767 10.4031 72.5394 10.5737 73.0691C10.7444 73.5988 11.0386 74.0803 11.4321 74.4738C11.8256 74.8673 12.3071 75.1615 12.8367 75.3321C13.3664 75.5027 13.9291 75.5448 14.4783 75.455C46.2725 70.2679 76.9476 59.6903 105.181 44.1779Z" fill="#CF4FA9"/>
</g>
<defs>
<clipPath id="clip0_33_478">
<rect width="112.229" height="112.229" fill="white" transform="translate(113.126 87.5937) rotate(-180)"/>
</clipPath>
</defs>
</svg>
