<svg width="24" height="24" viewBox="0 0 24 24" fill="none" xmlns="http://www.w3.org/2000/svg">
<path fill-rule="evenodd" clip-rule="evenodd" d="M12.0004 3.59998C6.82839 3.59998 2.40039 7.23958 2.40039 12C2.40039 14.4288 3.57399 16.59 5.39919 18.102C5.38245 18.8477 5.16615 19.5754 4.77279 20.2092C4.69123 20.3409 4.64504 20.4913 4.63868 20.6461C4.63231 20.8009 4.666 20.9546 4.73647 21.0926C4.80694 21.2305 4.91181 21.3479 5.04095 21.4334C5.17008 21.519 5.3191 21.5697 5.47359 21.5808C7.15535 21.7067 8.82771 21.236 10.1968 20.2512C10.7812 20.3496 11.3848 20.4 12.0004 20.4C17.1724 20.4 21.6004 16.7604 21.6004 12C21.6004 7.23958 17.1724 3.59998 12.0004 3.59998ZM12.0004 13.2C12.3187 13.2 12.6239 13.0735 12.8489 12.8485C13.074 12.6235 13.2004 12.3182 13.2004 12C13.2004 11.6817 13.074 11.3765 12.8489 11.1514C12.6239 10.9264 12.3187 10.8 12.0004 10.8C11.6821 10.8 11.3769 10.9264 11.1519 11.1514C10.9268 11.3765 10.8004 11.6817 10.8004 12C10.8004 12.3182 10.9268 12.6235 11.1519 12.8485C11.3769 13.0735 11.6821 13.2 12.0004 13.2ZM9.60039 12C9.60039 12.3182 9.47396 12.6235 9.24892 12.8485C9.02388 13.0735 8.71865 13.2 8.40039 13.2C8.08213 13.2 7.77691 13.0735 7.55186 12.8485C7.32682 12.6235 7.20039 12.3182 7.20039 12C7.20039 11.6817 7.32682 11.3765 7.55186 11.1514C7.77691 10.9264 8.08213 10.8 8.40039 10.8C8.71865 10.8 9.02388 10.9264 9.24892 11.1514C9.47396 11.3765 9.60039 11.6817 9.60039 12ZM15.6004 13.2C15.9187 13.2 16.2239 13.0735 16.4489 12.8485C16.674 12.6235 16.8004 12.3182 16.8004 12C16.8004 11.6817 16.674 11.3765 16.4489 11.1514C16.2239 10.9264 15.9187 10.8 15.6004 10.8C15.2821 10.8 14.9769 10.9264 14.7519 11.1514C14.5268 11.3765 14.4004 11.6817 14.4004 12C14.4004 12.3182 14.5268 12.6235 14.7519 12.8485C14.9769 13.0735 15.2821 13.2 15.6004 13.2Z" fill="#646D89"/>
</svg>
