<svg width="20" height="22" viewBox="0 0 20 22" fill="none" xmlns="http://www.w3.org/2000/svg">
<path d="M10.378 0.601978C10.2633 0.535032 10.1328 0.499756 10 0.499756C9.86717 0.499756 9.73672 0.535032 9.622 0.601978L1 5.63198L10 10.882L19 5.63198L10.378 0.601978ZM19.75 6.92998L10.75 12.18V21.18L19.378 16.148C19.4912 16.0819 19.5852 15.9873 19.6504 15.8736C19.7157 15.7599 19.75 15.6311 19.75 15.5V6.92998ZM9.25 21.18V12.18L0.25 6.92998V15.5C0.249961 15.6311 0.284289 15.7599 0.34956 15.8736C0.414832 15.9873 0.508767 16.0819 0.622 16.148L9.25 21.181V21.18Z" fill="#FFE1EA"/>
</svg>
