<svg width="32" height="26" viewBox="0 0 32 26" fill="none" xmlns="http://www.w3.org/2000/svg">
<path fill-rule="evenodd" clip-rule="evenodd" d="M0.25 4C0.25 3.10489 0.605579 2.24645 1.23851 1.61351C1.87145 0.98058 2.72989 0.625 3.625 0.625H28.375C29.2701 0.625 30.1285 0.98058 30.7615 1.61351C31.3944 2.24645 31.75 3.10489 31.75 4V22C31.75 22.8951 31.3944 23.7535 30.7615 24.3865C30.1285 25.0194 29.2701 25.375 28.375 25.375H3.625C2.72989 25.375 1.87145 25.0194 1.23851 24.3865C0.605579 23.7535 0.25 22.8951 0.25 22V4ZM2.5 19.09V22C2.5 22.621 3.004 23.125 3.625 23.125H28.375C28.6734 23.125 28.9595 23.0065 29.1705 22.7955C29.3815 22.5845 29.5 22.2984 29.5 22V19.09L25.465 15.0565C25.0431 14.6351 24.4713 14.3985 23.875 14.3985C23.2787 14.3985 22.7069 14.6351 22.285 15.0565L20.965 16.375L22.42 17.83C22.5305 17.933 22.6192 18.0572 22.6807 18.1952C22.7422 18.3332 22.7752 18.4822 22.7779 18.6332C22.7806 18.7843 22.7528 18.9343 22.6962 19.0744C22.6396 19.2145 22.5554 19.3417 22.4486 19.4486C22.3417 19.5554 22.2145 19.6396 22.0744 19.6962C21.9343 19.7528 21.7843 19.7806 21.6332 19.7779C21.4822 19.7752 21.3332 19.7422 21.1952 19.6807C21.0572 19.6192 20.933 19.5305 20.83 19.42L13.09 11.6815C12.6681 11.2601 12.0963 11.0235 11.5 11.0235C10.9037 11.0235 10.3319 11.2601 9.91 11.6815L2.5 19.0915V19.09ZM17.6875 7.375C17.6875 6.92745 17.8653 6.49823 18.1818 6.18176C18.4982 5.86529 18.9274 5.6875 19.375 5.6875C19.8226 5.6875 20.2518 5.86529 20.5682 6.18176C20.8847 6.49823 21.0625 6.92745 21.0625 7.375C21.0625 7.82255 20.8847 8.25177 20.5682 8.56824C20.2518 8.88471 19.8226 9.0625 19.375 9.0625C18.9274 9.0625 18.4982 8.88471 18.1818 8.56824C17.8653 8.25177 17.6875 7.82255 17.6875 7.375Z" fill="#9AA1B9"/>
</svg>
