<svg width="23" height="23" viewBox="0 0 23 23" fill="none" xmlns="http://www.w3.org/2000/svg">
<g id="Star">
<g id="Star_2">
<path id="Stroke 1" fill-rule="evenodd" clip-rule="evenodd" d="M12.4153 4.70528L14.0827 8.03635C14.2461 8.36336 14.5615 8.59012 14.9273 8.64259L18.6573 9.1795C19.5789 9.31256 19.9456 10.4295 19.2787 11.0694L16.5814 13.6612C16.3163 13.9161 16.1956 14.2825 16.2584 14.6423L16.8949 18.3013C17.0517 19.2064 16.0883 19.897 15.2646 19.4688L11.9307 17.74C11.6039 17.5704 11.2125 17.5704 10.8847 17.74L7.55085 19.4688C6.72713 19.897 5.76375 19.2064 5.92146 18.3013L6.55707 14.6423C6.61977 14.2825 6.49911 13.9161 6.23404 13.6612L3.53676 11.0694C2.8698 10.4295 3.23653 9.31256 4.15811 9.1795L7.88813 8.64259C8.25391 8.59012 8.57029 8.36336 8.73371 8.03635L10.4001 4.70528C10.8125 3.88165 12.0029 3.88165 12.4153 4.70528Z" stroke="#C70039" stroke-width="1.36865" stroke-linecap="round" stroke-linejoin="round"/>
</g>
</g>
</svg>
